<svg width="560" height="420" viewBox="0 0 560 420" xmlns="http://www.w3.org/2000/svg">
  <rect x="0" y="0" width="560" height="420" fill="#FFFFFF"/>
  <rect x="24" y="24" width="512" height="372" rx="20" fill="#FFFFFF" stroke="#E5E7EB"/>
  <rect x="60" y="60" width="180" height="14" rx="7" fill="#6D5EF3" opacity="0.95"/>
  <rect x="60" y="86" width="120" height="10" rx="5" fill="#A5B4FC"/>
  <g transform="translate(60,120)">
    <rect width="200" height="170" rx="12" fill="#F5F7FF" stroke="#E5E7EB"/>
    <rect x="20" y="120" width="28" height="40" rx="4" fill="#6D5EF3" opacity="0.9"/>
    <rect x="60" y="90" width="28" height="70" rx="4" fill="#A78BFA"/>
    <rect x="100" y="60" width="28" height="100" rx="4" fill="#6366F1"/>
    <rect x="140" y="20" width="28" height="140" rx="4" fill="#8B5CF6"/>
  </g>
  <g transform="translate(290,120)">
    <rect width="210" height="170" rx="12" fill="#F5F7FF" stroke="#E5E7EB"/>
    <path d="M16 140 C40 110, 80 70, 120 90 S 200 130, 194 60" fill="none" stroke="#6D5EF3" stroke-width="3"/>
    <circle cx="120" cy="90" r="6" fill="#F59E0B"/>
  </g>
  <rect x="60" y="340" width="120" height="14" rx="7" fill="#10B981" opacity="0.9"/>
  <rect x="196" y="340" width="80" height="14" rx="7" fill="#F59E0B" opacity="0.9"/>
</svg>
